# xmcd
#
# Track frame offsets:
#	150
#	26192
#	58746
#	84356
#	118824
#	144334
#	171809
#	197832
#	226869
#
# Disc length: 3366 seconds
#
# Revision: 1
# Processed by: cddbd v1.5.2PL0 Copyright (c) Steve Scherf et al.
# Submitted via: EasyCDDAExtractor 16.0.9.1
#
DISCID=760d2409
DTITLE=Various Artist - Euro Heaven Vol.6
DYEAR=2004
DGENRE=Euro-House
TTITLE0=Lawrence - In The Shadows (Factory Team Mix) 
TTITLE1=DJ Miko - Forever Young (Trance Mix)
TTITLE2=3 Boys - Kiss (Dance Mix)
TTITLE3=Saint Etien - End Of The Road
TTITLE4=Boys Boys Boys  - Relight My Fire (Factory Team Dance Mix)
TTITLE5=Interface  - Dust In The Wind (Electricstomp Mix)
TTITLE6=Euroboy - Oh L'Amour (Dance Remix)
TTITLE7=Sunset Boulevard  - Life In A Northern Town (Dance Remix)
TTITLE8=Trancemission  - Strangelove (Dance Remix)
EXTD=
EXTT0=
EXTT1=
EXTT2=
EXTT3=
EXTT4=
EXTT5=
EXTT6=
EXTT7=
EXTT8=
PLAYORDER=
